<mxfile host="app.diagrams.net" agent="Mozilla/5.0 (Windows NT 10.0; Win64; x64) AppleWebKit/537.36 (KHTML, like Gecko) Chrome/131.0.0.0 Safari/537.36" version="26.0.10">
  <diagram name="Page-1" id="ddUY0-JBl0YZsYEiuBf4">
    <mxGraphModel dx="925" dy="585" grid="1" gridSize="10" guides="1" tooltips="1" connect="1" arrows="1" fold="1" page="1" pageScale="1" pageWidth="827" pageHeight="1169" math="0" shadow="0">
      <root>
        <mxCell id="0" />
        <mxCell id="1" parent="0" />
        <mxCell id="8YABR_l0edWi9X-4XDio-1" value="end" style="rounded=1;whiteSpace=wrap;html=1;arcSize=50;" vertex="1" parent="1">
          <mxGeometry x="40" y="260" width="120" height="30" as="geometry" />
        </mxCell>
        <mxCell id="8YABR_l0edWi9X-4XDio-6" value="" style="edgeStyle=orthogonalEdgeStyle;rounded=0;orthogonalLoop=1;jettySize=auto;html=1;" edge="1" parent="1" source="8YABR_l0edWi9X-4XDio-2" target="8YABR_l0edWi9X-4XDio-1">
          <mxGeometry relative="1" as="geometry" />
        </mxCell>
        <mxCell id="8YABR_l0edWi9X-4XDio-2" value="print&lt;div&gt;&quot;Naif&quot;&lt;/div&gt;" style="shape=parallelogram;perimeter=parallelogramPerimeter;whiteSpace=wrap;html=1;fixedSize=1;" vertex="1" parent="1">
          <mxGeometry x="40" y="190" width="120" height="40" as="geometry" />
        </mxCell>
        <mxCell id="8YABR_l0edWi9X-4XDio-7" value="" style="edgeStyle=orthogonalEdgeStyle;rounded=0;orthogonalLoop=1;jettySize=auto;html=1;" edge="1" parent="1" source="8YABR_l0edWi9X-4XDio-3" target="8YABR_l0edWi9X-4XDio-2">
          <mxGeometry relative="1" as="geometry" />
        </mxCell>
        <mxCell id="8YABR_l0edWi9X-4XDio-3" value="start" style="rounded=1;whiteSpace=wrap;html=1;arcSize=50;" vertex="1" parent="1">
          <mxGeometry x="40" y="120" width="120" height="30" as="geometry" />
        </mxCell>
        <mxCell id="8YABR_l0edWi9X-4XDio-8" value="" style="endArrow=none;html=1;rounded=0;" edge="1" parent="1">
          <mxGeometry width="50" height="50" relative="1" as="geometry">
            <mxPoint x="200" y="310" as="sourcePoint" />
            <mxPoint x="200" as="targetPoint" />
          </mxGeometry>
        </mxCell>
        <mxCell id="8YABR_l0edWi9X-4XDio-9" value="" style="endArrow=none;html=1;rounded=0;" edge="1" parent="1">
          <mxGeometry width="50" height="50" relative="1" as="geometry">
            <mxPoint y="310" as="sourcePoint" />
            <mxPoint x="200" y="310" as="targetPoint" />
          </mxGeometry>
        </mxCell>
        <mxCell id="8YABR_l0edWi9X-4XDio-12" value="&lt;h1 style=&quot;margin-top: 0px;&quot;&gt;&lt;span style=&quot;background-color: transparent; color: light-dark(rgb(0, 0, 0), rgb(255, 255, 255));&quot;&gt;problem 1&lt;/span&gt;&lt;/h1&gt;&lt;h1 style=&quot;margin-top: 0px;&quot;&gt;&lt;span style=&quot;font-size: 12px; font-weight: 400;&quot;&gt;print &quot;Naif&quot;.&lt;/span&gt;&lt;/h1&gt;" style="text;html=1;whiteSpace=wrap;overflow=hidden;rounded=0;" vertex="1" parent="1">
          <mxGeometry x="10" y="10" width="180" height="80" as="geometry" />
        </mxCell>
        <mxCell id="8YABR_l0edWi9X-4XDio-13" value="&lt;h1 style=&quot;margin-top: 0px;&quot;&gt;&lt;span style=&quot;background-color: transparent; color: light-dark(rgb(0, 0, 0), rgb(255, 255, 255));&quot;&gt;problem 2&lt;/span&gt;&lt;/h1&gt;&lt;h1 style=&quot;margin-top: 0px;&quot;&gt;&lt;span style=&quot;font-size: 12px; font-weight: 400;&quot;&gt;Write a program to ask the user to enter his name and print it on screen.&lt;/span&gt;&lt;/h1&gt;" style="text;html=1;whiteSpace=wrap;overflow=hidden;rounded=0;" vertex="1" parent="1">
          <mxGeometry x="210" width="390" height="80" as="geometry" />
        </mxCell>
        <mxCell id="8YABR_l0edWi9X-4XDio-15" value="end" style="rounded=1;whiteSpace=wrap;html=1;arcSize=50;" vertex="1" parent="1">
          <mxGeometry x="310" y="270" width="120" height="30" as="geometry" />
        </mxCell>
        <mxCell id="8YABR_l0edWi9X-4XDio-23" value="" style="edgeStyle=orthogonalEdgeStyle;rounded=0;orthogonalLoop=1;jettySize=auto;html=1;" edge="1" parent="1" source="8YABR_l0edWi9X-4XDio-17" target="8YABR_l0edWi9X-4XDio-22">
          <mxGeometry relative="1" as="geometry" />
        </mxCell>
        <mxCell id="8YABR_l0edWi9X-4XDio-17" value="Ask Name" style="shape=parallelogram;perimeter=parallelogramPerimeter;whiteSpace=wrap;html=1;fixedSize=1;" vertex="1" parent="1">
          <mxGeometry x="310" y="150" width="120" height="40" as="geometry" />
        </mxCell>
        <mxCell id="8YABR_l0edWi9X-4XDio-18" value="" style="edgeStyle=orthogonalEdgeStyle;rounded=0;orthogonalLoop=1;jettySize=auto;html=1;" edge="1" parent="1" source="8YABR_l0edWi9X-4XDio-19" target="8YABR_l0edWi9X-4XDio-17">
          <mxGeometry relative="1" as="geometry" />
        </mxCell>
        <mxCell id="8YABR_l0edWi9X-4XDio-19" value="start" style="rounded=1;whiteSpace=wrap;html=1;arcSize=50;" vertex="1" parent="1">
          <mxGeometry x="310" y="80" width="120" height="30" as="geometry" />
        </mxCell>
        <mxCell id="8YABR_l0edWi9X-4XDio-25" value="" style="edgeStyle=orthogonalEdgeStyle;rounded=0;orthogonalLoop=1;jettySize=auto;html=1;" edge="1" parent="1" source="8YABR_l0edWi9X-4XDio-22" target="8YABR_l0edWi9X-4XDio-15">
          <mxGeometry relative="1" as="geometry" />
        </mxCell>
        <mxCell id="8YABR_l0edWi9X-4XDio-22" value="Print Name" style="shape=parallelogram;perimeter=parallelogramPerimeter;whiteSpace=wrap;html=1;fixedSize=1;" vertex="1" parent="1">
          <mxGeometry x="310" y="210" width="120" height="40" as="geometry" />
        </mxCell>
        <mxCell id="8YABR_l0edWi9X-4XDio-26" value="end" style="rounded=1;whiteSpace=wrap;html=1;arcSize=50;" vertex="1" parent="1">
          <mxGeometry x="260" y="610" width="120" height="30" as="geometry" />
        </mxCell>
        <mxCell id="8YABR_l0edWi9X-4XDio-27" value="" style="edgeStyle=orthogonalEdgeStyle;rounded=0;orthogonalLoop=1;jettySize=auto;html=1;" edge="1" parent="1" source="8YABR_l0edWi9X-4XDio-28" target="8YABR_l0edWi9X-4XDio-32">
          <mxGeometry relative="1" as="geometry" />
        </mxCell>
        <mxCell id="8YABR_l0edWi9X-4XDio-28" value="Ask Name" style="shape=parallelogram;perimeter=parallelogramPerimeter;whiteSpace=wrap;html=1;fixedSize=1;" vertex="1" parent="1">
          <mxGeometry x="260" y="490" width="120" height="40" as="geometry" />
        </mxCell>
        <mxCell id="8YABR_l0edWi9X-4XDio-29" value="" style="edgeStyle=orthogonalEdgeStyle;rounded=0;orthogonalLoop=1;jettySize=auto;html=1;" edge="1" parent="1" source="8YABR_l0edWi9X-4XDio-30" target="8YABR_l0edWi9X-4XDio-28">
          <mxGeometry relative="1" as="geometry" />
        </mxCell>
        <mxCell id="8YABR_l0edWi9X-4XDio-30" value="start" style="rounded=1;whiteSpace=wrap;html=1;arcSize=50;" vertex="1" parent="1">
          <mxGeometry x="260" y="420" width="120" height="30" as="geometry" />
        </mxCell>
        <mxCell id="8YABR_l0edWi9X-4XDio-31" value="" style="edgeStyle=orthogonalEdgeStyle;rounded=0;orthogonalLoop=1;jettySize=auto;html=1;" edge="1" parent="1" source="8YABR_l0edWi9X-4XDio-32" target="8YABR_l0edWi9X-4XDio-26">
          <mxGeometry relative="1" as="geometry" />
        </mxCell>
        <mxCell id="8YABR_l0edWi9X-4XDio-32" value="Print Name" style="shape=parallelogram;perimeter=parallelogramPerimeter;whiteSpace=wrap;html=1;fixedSize=1;" vertex="1" parent="1">
          <mxGeometry x="260" y="550" width="120" height="40" as="geometry" />
        </mxCell>
        <mxCell id="8YABR_l0edWi9X-4XDio-33" value="&lt;h1 style=&quot;margin-top: 0px;&quot;&gt;&lt;span style=&quot;background-color: transparent; color: light-dark(rgb(0, 0, 0), rgb(255, 255, 255));&quot;&gt;problem 3&lt;/span&gt;&lt;/h1&gt;&lt;h1 style=&quot;margin-top: 0px;&quot;&gt;&lt;span style=&quot;font-size: 12px; font-weight: 400;&quot;&gt;Write a program to ask the&amp;nbsp; user to enter an number&amp;nbsp; then print &quot;ODD &quot;if its odd ,&amp;nbsp; Or &quot; Even&quot; if its even.&amp;nbsp;&lt;/span&gt;&lt;/h1&gt;" style="text;html=1;whiteSpace=wrap;overflow=hidden;rounded=0;" vertex="1" parent="1">
          <mxGeometry x="10" y="320" width="600" height="80" as="geometry" />
        </mxCell>
      </root>
    </mxGraphModel>
  </diagram>
</mxfile>
